<svg id="Capa_1" enable-background="new 0 0 512.135 512.135" height="512" viewBox="0 0 512.135 512.135" width="512" xmlns="http://www.w3.org/2000/svg"><g><path d="m366.265 261.727c-3.392-3.319-6.921-6.441-10.547-9.409.085-.744.162-1.494.201-2.276.438-8.892-2.709-17.782-8.417-23.781-2.558-2.689-5.574-4.712-8.854-6.045 14.619-18.478 22.56-41.184 22.56-65.087 0-25.152-9.023-49.491-25.407-68.534-2.698-3.137-7.428-3.489-10.562-.792-3.135 2.697-3.49 7.426-.793 10.561 14.048 16.326 21.784 37.196 21.784 58.765 0 49.32-40.115 89.765-89.425 90.16-48.609.408-89.349-38.765-90.857-87.281-.586-18.832 4.57-37.03 14.909-52.625 10.081-15.204 24.302-26.874 41.127-33.749 12.937-5.286 21.296-17.599 21.296-31.37v-22.025c0-1.798 1.463-3.261 3.261-3.261h19.05c1.798 0 3.261 1.463 3.261 3.261v21.891c0 13.903 8.246 26.223 21.008 31.386 3.21 1.298 6.379 2.801 9.422 4.466 3.629 1.985 8.18.654 10.165-2.974s.654-8.18-2.974-10.165c-3.55-1.943-7.249-3.696-10.996-5.212-7.076-2.862-11.647-9.732-11.647-17.501v-21.891c.001-10.057-8.181-18.239-18.238-18.239h-19.05c-10.057 0-18.239 8.182-18.239 18.239v22.025c0 7.659-4.704 14.53-11.984 17.504-19.618 8.016-36.198 21.619-47.945 39.338-12.063 18.196-18.079 39.416-17.397 61.367.711 22.887 8.788 44.534 22.999 62.216-2.846 1.325-5.467 3.192-7.733 5.573-5.708 5.999-8.854 14.888-8.416 23.781.02.412.058.81.092 1.212-5.07 4.064-9.927 8.463-14.536 13.19-29.057 29.799-45.002 68.983-44.896 110.336.127 49.383 23.12 94.75 63.082 124.469 11.174 8.31 25.09 12.887 39.183 12.887h112.21c14.752 0 29.151-4.943 40.545-13.92 38.218-30.109 60.137-75.25 60.137-123.848.002-42.743-16.825-82.746-47.379-112.642zm-22.025 224.721c-8.765 6.905-19.872 10.708-31.276 10.708h-112.21c-10.896 0-21.637-3.526-30.245-9.927-36.137-26.873-56.928-67.874-57.042-112.488-.096-37.408 14.337-72.866 40.641-99.841 2.976-3.051 6.077-5.933 9.269-8.68 6.53 8.833 17.558 13.117 26.386 16.539.874.339 1.738.674 2.587 1.009 3.849 1.518 8.197-.37 9.715-4.218 1.518-3.847-.371-8.197-4.218-9.715-.876-.346-1.768-.692-2.67-1.041-13.592-5.269-21.882-9.21-22.388-19.489-.24-4.878 1.37-9.633 4.308-12.72 2.038-2.142 4.484-3.229 7.267-3.23h.392c.27 0 .688 0 1.227-.001 19.39 17.398 44.107 26.915 70.091 26.915.283 0 .569-.001.853-.003 25.883-.208 50.294-9.723 69.39-26.913 1.287.001 2.2.001 2.677.002h.388c2.787.001 5.234 1.088 7.271 3.23 2.937 3.087 4.548 7.843 4.307 12.72-.624 12.69-15.281 16.673-25.057 20.531-18.503 7.3-38.915 11.159-59.027 11.159-8.818 0-17.747-.74-26.538-2.2-4.075-.679-7.937 2.08-8.614 6.161-.678 4.08 2.081 7.937 6.161 8.614 9.599 1.594 19.354 2.403 28.991 2.403 7.984 0 16.012-.564 23.97-1.657v34.673c0 14.992 12.196 27.188 27.188 27.188s27.189-12.197 27.189-27.188v-50.993c5.449-2.691 10.726-6.162 14.601-11.078 2.032 1.775 4.023 3.611 5.967 5.514 27.651 27.055 42.879 63.255 42.879 101.933-.002 43.98-19.84 84.833-54.43 112.083zm-23.998-202.239v44.78c0 6.733-5.477 12.21-12.211 12.21-6.732 0-12.21-5.477-12.21-12.21v-37.385c8.353-1.88 16.539-4.352 24.421-7.395z"/></g></svg>