<?xml version="1.0" encoding="utf-8"?>
<!-- Generator: Adobe Illustrator 23.0.1, SVG Export Plug-In . SVG Version: 6.00 Build 0)  -->
<svg version="1.1" id="Layer_1" xmlns="http://www.w3.org/2000/svg" xmlns:xlink="http://www.w3.org/1999/xlink" x="0px" y="0px"
	 viewBox="0 0 1366 768" style="enable-background:new 0 0 1366 768;" xml:space="preserve">
<style type="text/css">
	.st0{fill-rule:evenodd;clip-rule:evenodd;fill:#321210;}
	.st1{fill-rule:evenodd;clip-rule:evenodd;fill:#E3405F;}
</style>
<g>
	<path class="st0" d="M571.67,218.92l10.16,14.84l5.98-4.09c4.65-3.18,5.92-8.54,2.9-12.95c-2.97-4.34-8.41-5.07-13.06-1.89
		L571.67,218.92L571.67,218.92z M583.25,227.91l-5.62-8.2l2.29-1.57c2.4-1.64,5.47-1.15,7.03,1.14c1.61,2.36,0.98,5.42-1.41,7.06
		L583.25,227.91L583.25,227.91z M598.89,206.98l1.39,2.97l7.21-3.38l1.62,3.45l-7.21,3.38l1.33,2.83l8.26-3.88l1.65,3.52
		l-12.31,5.78l-7.64-16.28l12.31-5.78l1.65,3.52L598.89,206.98L598.89,206.98z M629.66,205.67l-8.4,2.89l-4.57-13.28l-4.23,1.45
		l5.85,17.01l12.63-4.34L629.66,205.67L629.66,205.67z M636.47,189.75l-4.36,0.97l3.9,17.56l4.36-0.97L636.47,189.75L636.47,189.75z
		 M654.97,200.96c-2.91,0.36-5.2-1.57-5.57-4.54c-0.36-2.97,1.39-5.39,4.3-5.75c2.36-0.29,4.11,0.91,4.88,3.08l4.54-0.56
		c-1.12-4.55-5.02-7.27-9.9-6.67c-5.38,0.66-8.97,5.07-8.31,10.45c0.66,5.38,5.21,8.79,10.59,8.13c4.88-0.6,8.01-4.18,8-8.87
		l-4.54,0.56C658.74,199.09,657.33,200.67,654.97,200.96L654.97,200.96z M674.29,185.7l-4.47,0.1l0.42,17.98l4.47-0.1L674.29,185.7
		L674.29,185.7z M691.81,186.17c-5.4-0.53-9.88,3.17-10.4,8.38c-0.51,5.21,3.16,9.72,8.56,10.25c5.42,0.53,9.91-3.17,10.42-8.38
		C700.9,191.21,697.23,186.7,691.81,186.17L691.81,186.17z M690.38,200.67c-2.9-0.29-4.74-2.86-4.46-5.68
		c0.28-2.82,2.59-4.98,5.49-4.69c2.9,0.29,4.74,2.86,4.46,5.68C695.58,198.79,693.27,200.96,690.38,200.67L690.38,200.67z
		 M725.81,193.68l-4.32-1.23l-2.65,9.31c-0.75,2.65-2.72,3.93-4.98,3.28c-2.26-0.65-3.23-2.76-2.47-5.41l2.65-9.31l-4.32-1.23
		l-2.63,9.23c-1.53,5.37,0.69,9.33,5.63,10.74c4.96,1.41,8.94-0.78,10.47-6.15L725.81,193.68L725.81,193.68z M740.63,198.57
		c-3.86-1.73-7.45-0.84-8.91,2.45c-1.17,2.61-0.32,4.81,2.6,6.96l2.43,1.81c1.28,0.89,1.36,1.62,1.11,2.18
		c-0.4,0.89-1.44,1.09-2.97,0.41c-1.93-0.86-2.8-2.29-2.42-3.86l-4.08-1.82c-1.43,4.23,1.13,7.46,4.82,9.11
		c4.11,1.83,7.73,0.99,9.19-2.29c1.26-2.83-0.15-4.91-2.86-6.9l-2.06-1.56c-1.11-0.82-1.59-1.49-1.19-2.39
		c0.47-1.06,1.67-1.22,3.08-0.6c1.67,0.74,2.06,1.94,1.73,3.26l4.1,1.83C746.78,202.57,743.28,199.76,740.63,198.57z"/>
	<path class="st1" d="M675.97,224.06c24.71,0,47.86,6.68,67.75,18.33c-6.43,2.75-13.28,5.64-20.34,8.49
		c-14.5-6.41-30.54-9.97-47.41-9.97c-19.74,0-38.34,4.88-54.67,13.48c-0.83-1.72-1.85-3.4-3.15-5.07c-2.62-3.36-5.89-5.77-9.61-7.13
		C628.36,230.67,651.4,224.06,675.97,224.06z"/>
	<path class="st1" d="M673.66,144c61.94,0,117.74,26.27,156.88,68.28c-8.35,2.35-16.64,5.13-24.83,8.14
		c-34.3-32.84-80.82-53.01-132.06-53.01c-81.46,0-151,51-178.46,122.81c-7.34-1.08-14.79-0.49-22.06,1.24
		c-1.17,0.28-2.34,0.57-3.51,0.89C497.48,206.26,578.29,144,673.66,144L673.66,144z M886.32,385.97
		C872.8,491.38,782.75,572.85,673.66,572.85c-78.54,0-147.2-42.23-184.55-105.22c4.99-3.98,9.39-8.73,13.21-14.12
		c1.07-1.51,2.1-3.05,3.08-4.61c32.25,59.86,95.5,100.54,168.26,100.54c92.09,0,168.94-65.17,186.99-151.9
		c1.08-0.15,2.16-0.34,3.24-0.56C872.29,395.2,879.9,391.53,886.32,385.97z"/>
	<path class="st1" d="M755.38,463.63c-22.42,16.38-50.06,26.06-79.96,26.06c-34.14,0-65.34-12.61-89.19-33.43l9.62-2.4
		c1.11-0.2,2.22-0.48,3.31-0.83l7.96-1.99c19.31,13.62,42.87,21.62,68.3,21.62c23.73,0,45.82-6.97,64.37-18.96
		c2.39,2.67,5.26,4.97,8.49,6.83C750.57,461.85,752.94,462.87,755.38,463.63z"/>
	<path class="st1" d="M419.89,338.81c2.91-3.86,7.37-7.89,13.38-12.1c6.01-4.21,12.69-7.96,20.04-11.26
		c7.35-3.29,14.51-5.77,21.48-7.42c6.97-1.65,13.23-1.72,18.78-0.19c5.55,1.53,9.21,4.81,10.99,9.83
		c1.99,5.46,3.18,13.35,3.56,23.65c0.38,10.31-0.15,21.61-1.57,33.92c-1.42,12.31-3.93,24.42-7.54,36.35
		c-3.6,11.93-8.46,22.2-14.56,30.81c-6.1,8.61-13.64,14.44-22.6,17.47c-8.96,3.04-19.56,1.76-31.78-3.82
		c0.48,0.02,1.03,0.02,1.62,0.02l-1.62-0.02c-5.36-3.19-8.74-7.7-10.15-13.52c-1.41-5.82-0.78-12.35,1.9-19.58
		c2.68-7.23,6.76-14.61,12.25-22.13c5.49-7.52,12.69-14.96,21.58-22.3c8.89-7.34,18.59-13.74,29.08-19.2
		c1.88-11.56,2.73-23.15,2.56-34.76c-3.13-0.06-7.04,0.8-11.7,2.56c-4.67,1.77-9.57,4.3-14.69,7.61
		c-5.13,3.3-10.04,7.04-14.74,11.22c-4.7,4.17-8.83,8.92-12.39,14.23c-3.56,5.31-5.93,10.56-7.12,15.73
		c-2.41,0.51-4.65,0.17-6.7-1.02c-2.05-1.19-3.7-3.03-4.95-5.53c-1.25-2.5-2.03-5.33-2.34-8.51c-0.31-3.18,0.14-6.72,1.35-10.64
		C415.24,346.31,417.19,342.5,419.89,338.81L419.89,338.81z M474.14,398.66c4.53-11.52,7.88-23.51,10.05-35.98
		c-5.44,3.79-10.6,7.94-15.47,12.45c-4.87,4.51-9.12,8.98-12.74,13.41c-3.63,4.43-6.91,8.93-9.84,13.52
		c-2.93,4.58-5.21,8.87-6.82,12.88c-1.61,4-2.84,7.86-3.68,11.58c-0.84,3.72-0.94,6.89-0.33,9.52c0.62,2.63,1.66,4.87,3.13,6.72
		c1.35,1.28,2.83,1.89,4.44,1.85c1.61-0.04,3.24-0.72,4.88-2.02c1.64-1.31,3.34-2.96,5.08-4.95c1.74-1.99,3.46-4.36,5.16-7.12
		c1.7-2.76,3.31-5.5,4.84-8.23c1.53-2.72,3.04-5.65,4.53-8.79c1.5-3.14,2.77-5.81,3.8-8.01C472.21,403.3,473.2,401.02,474.14,398.66
		z"/>
	<path class="st1" d="M575.06,370.85c0.47,2.78,0.29,7.62-0.53,14.52c-0.82,6.9-1.73,13.54-2.72,19.93
		c-0.99,6.39-1.46,12.98-1.41,19.75c0.05,6.77,1.24,11.41,3.57,13.92c-6.27,1.57-11.45,1.79-15.53,0.67
		c-4.08-1.12-6.99-4.38-8.73-9.77c-1.57-4.59-1.08-15.62,1.47-33.09c-0.79,1.97-1.7,4.47-2.74,7.51c-1.04,3.04-1.93,5.63-2.68,7.77
		c-0.75,2.14-1.61,4.57-2.6,7.3c-0.98,2.73-1.87,5.08-2.65,7.04c-0.79,1.97-1.61,4.03-2.47,6.2c-0.86,2.16-1.68,3.96-2.46,5.38
		c-0.78,1.42-1.57,2.79-2.37,4.1c-0.8,1.31-1.55,2.31-2.25,3c-0.7,0.69-1.39,1.1-2.08,1.25c-1.49,0.32-3.3,0.16-5.41-0.48
		c-2.11-0.63-4.38-1.99-6.8-4.06c-2.42-2.07-4.49-4.75-6.2-8.05c-1.72-3.3-2.75-7.76-3.1-13.39c-0.35-5.63,0.35-11.99,2.09-19.08
		c1.63-7.07,3.77-13.28,6.42-18.64c2.65-5.36,5.37-9.51,8.18-12.44c2.8-2.93,5.71-5.23,8.72-6.89c3.01-1.66,5.78-2.63,8.3-2.92
		c2.52-0.29,4.85-0.19,7,0.32c2.78,1.21,5.56,2.43,8.33,3.64c-0.2-3.8-0.92-6.05-2.15-6.75
		C566.8,359.03,573.74,363.45,575.06,370.85L575.06,370.85z M556.37,367.6c-0.02-0.11-0.04-0.17-0.04-0.17
		c-4.81,0.54-9.47,3.74-13.99,9.62c-4.52,5.88-8.07,12.39-10.64,19.54c-2.57,7.15-4.31,13.97-5.22,20.46
		c-0.91,6.5-0.52,10.59,1.15,12.27C539.02,402.54,548.6,381.97,556.37,367.6z"/>
	<path class="st1" d="M619.91,404.96c3.42-0.84,6.52-1.26,9.28-1.24c2.76,0.01,5.03,0.23,6.8,0.63c1.77,0.41,3.31,1.19,4.64,2.35
		c1.33,1.16,2.33,2.24,3.02,3.23c0.69,0.99,1.3,2.34,1.84,4.02c0.54,1.69,0.84,2.97,0.91,3.86c0.07,0.89,0.21,2.15,0.44,3.78
		c-5.8-1.3-12.67-1.16-20.63,0.4c-7.95,1.56-14.67,3.46-20.14,5.7c-5.47,2.24-9.74,4.34-12.8,6.31c-1.6,0.94-3.05,0.89-4.36-0.16
		l0,0c-4.46-3.5-7.26-6.81-8.4-9.93c-1.14-3.12-0.52-6.85,1.87-11.2c2.38-4.35,7.01-9.58,13.88-15.72
		c6.55-5.94,13.07-13.3,19.56-22.05c6.49-8.76,10.69-15.19,12.58-19.32c-1.25,1.46-3.16,3.1-5.72,4.9c-2.56,1.8-5.52,3.57-8.88,5.3
		c-3.36,1.73-6.86,3.19-10.51,4.38c-3.65,1.19-7.19,1.91-10.62,2.15c-3.43,0.25-6.47-0.22-9.12-1.4c-2.65-1.18-4.74-3.26-6.27-6.24
		c-1.53-2.98-2.14-7.14-1.83-12.49c0.81,2.71,3.77,3.5,8.87,2.36c5.1-1.14,10.74-3.14,16.92-6.01c6.18-2.87,12.39-5.02,18.63-6.46
		c6.24-1.44,10.92-1.05,14.03,1.18c2.55,1.86,4.37,4.36,5.46,7.49c1.08,3.13,1.36,6.86,0.83,11.17c-0.53,4.31-2.53,9.33-6.01,15.05
		c-3.47,5.72-8.29,11.63-14.44,17.73c-9.07,8.76-15.05,14.98-17.94,18.65c-2.89,3.67-4.26,6.69-4.12,9.06
		c-0.43-1.47,0.08-3.32,1.53-5.55c1.45-2.23,4.01-4.48,7.67-6.75C610.53,407.87,614.88,406.14,619.91,404.96z"/>
	<path class="st1" d="M735.58,319.11c1.78,0.46,3.35,1.06,4.7,1.8c1.36,0.73,2.47,1.46,3.34,2.18c0.87,0.72,1.56,1.71,2.07,2.98
		c0.51,1.27,0.84,2.4,0.99,3.39c0.15,0.99,0.19,2.45,0.12,4.39c-0.07,1.94-0.16,3.52-0.26,4.74c-0.1,1.22-0.31,3.07-0.63,5.54
		c-0.32,2.47-0.56,4.44-0.73,5.92c-2.96,28.6-2.14,44.4,2.45,47.39c1,0.75,2.23,0.91,3.7,0.48c-10.87,7.1-18.36,8.44-22.47,4.03
		c-4.11-4.41-5.69-14.59-4.74-30.52c0.05-1.45,0.15-3.12,0.29-5.01c0.14-1.89,0.24-3.53,0.31-4.93c0.07-1.39,0.15-2.82,0.26-4.29
		c0.11-1.46,0.14-2.73,0.1-3.8c-0.05-1.07-0.07-2.06-0.08-2.95c-0.01-0.9-0.12-1.57-0.33-2c-0.21-0.44-0.43-0.63-0.66-0.58
		c-0.97-0.03-3.34,4.37-7.11,13.21c-7.39,17.29-10.44,29.88-9.13,37.77c1,4.71,3.62,6.92,7.88,6.62
		c-10.87,7.1-18.36,8.44-22.47,4.03c-4.11-4.41-5.69-14.59-4.74-30.52c0.05-1.45,0.15-3.12,0.29-5.01c0.14-1.89,0.24-3.53,0.31-4.93
		c0.07-1.39,0.15-2.82,0.26-4.29c0.11-1.46,0.17-2.74,0.18-3.82c0.01-1.08-0.02-2.07-0.08-2.95c-0.07-0.89-0.18-1.55-0.33-2
		c-0.15-0.45-0.4-0.64-0.75-0.56c-0.62-0.11-1.63,0.52-3.02,1.9c-1.39,1.37-3.09,3.71-5.09,7.02c-2,3.3-3.9,7.28-5.68,11.92
		c-1.78,4.64-3.32,10.73-4.61,18.26c-1.29,7.54-1.95,15.75-2,24.64c-4,0.96-7.24,1.38-9.73,1.25c-2.49-0.13-4.76-1.1-6.82-2.88
		c-2.06-1.79-3.73-4.58-5.02-8.4c-1.1-3.49-1.05-10.22,0.14-20.2c1.19-9.98,2.67-19.05,4.42-27.23l2.6-12.43
		c0.75-2.68,1.08-5.12,0.97-7.32c-0.1-2.2-0.39-3.82-0.85-4.86c-0.46-1.04-0.96-1.69-1.49-1.94c12.66,1.41,19.66,5.81,20.98,13.22
		c0.25,1.75,0.23,4.21-0.06,7.4c4.37-8.85,9.09-16.09,14.14-21.72c5.05-5.63,9.28-8.08,12.67-7.36c2.89,0.59,5.17,1.46,6.85,2.6
		c1.68,1.15,2.84,2.64,3.47,4.49c0.63,1.85,0.97,3.73,1.01,5.64c0.04,1.91-0.09,4.4-0.4,7.47c3.8-8.73,7.93-15.72,12.4-20.99
		C727.7,320.59,731.81,318.34,735.58,319.11z"/>
	<path class="st1" d="M798.96,300.31c0.12-0.02,0.87,0,2.26,0.06c1.39,0.07,2.7,0.15,3.93,0.25c1.22,0.1,2.75,0.38,4.59,0.83
		c1.84,0.45,3.4,1.05,4.7,1.8c1.3,0.75,2.51,1.81,3.65,3.19c1.13,1.38,1.84,3,2.11,4.87c-0.32,7.03-0.6,12.94-0.84,17.74
		c-0.25,4.8-0.65,10.82-1.22,18.09c-0.57,7.26-1.22,13.55-1.96,18.87c-0.74,5.32-1.71,11.23-2.92,17.73
		c-1.21,6.5-2.64,12.23-4.29,17.2c-1.65,4.97-3.54,9.93-5.68,14.89c-2.13,4.95-4.69,9.34-7.67,13.15c-2.98,3.81-6.22,7.05-9.74,9.71
		c-5.8,4.35-10.95,6.7-15.44,7.04c-4.49,0.35-8.07-0.25-10.73-1.78c-2.67-1.54-4.17-3.41-4.52-5.62c5.62-1.79,10.63-4.83,15-9.11
		c4.38-4.29,8.06-9.6,11.04-15.93c2.98-6.33,5.49-12.96,7.51-19.87c2.02-6.91,3.75-14.66,5.17-23.24
		c-4.1,15.27-9.73,24.15-16.89,26.62c-6.25,1.68-11.41,1.96-15.49,0.84c-4.08-1.12-7.05-4.36-8.9-9.74
		c-1.07-3.37-1.02-10.38,0.15-21.01c1.17-10.63,2.68-20.41,4.52-29.32l2.76-13.37c0.22-2.93,0.1-5.36-0.37-7.3
		c-0.47-1.94-1.04-3.08-1.71-3.42c12.66,1.41,19.66,5.81,20.98,13.21c0.3,1.98,0.28,4.74-0.05,8.29c-0.33,3.55-0.98,8.7-1.96,15.45
		c-0.98,6.75-1.67,11.43-2.08,14.04c-1.07,9.71-0.36,14.78,2.13,15.22c1.57,0.03,3.48-1.7,5.75-5.18c1.84-2.67,3.58-5.95,5.22-9.84
		c1.64-3.89,3.03-7.81,4.17-11.78c1.14-3.96,2.2-8.18,3.18-12.65c0.98-4.47,1.76-8.45,2.34-11.93c0.58-3.48,1.09-6.92,1.51-10.31
		c0.42-3.39,0.71-5.73,0.86-7.02c0.15-1.29,0.23-2.18,0.25-2.66c0.12-1.71-0.01-3.45-0.38-5.23
		C799.53,301.3,799.21,300.38,798.96,300.31z"/>
	<path class="st1" d="M884.87,287.56c1.92,0.55,3.55,1.17,4.89,1.85c1.34,0.68,2.43,1.41,3.26,2.19c0.83,0.79,1.49,1.82,2,3.09
		c0.51,1.27,0.87,2.4,1.07,3.37c0.21,0.98,0.27,2.4,0.18,4.28c-0.08,1.88-0.2,3.43-0.36,4.67c-0.16,1.23-0.4,3.09-0.72,5.56
		c-0.32,2.47-0.56,4.44-0.73,5.92c-1.5,14.7-2.02,26.02-1.56,33.98c9.06-6.17,16.95-13.69,23.67-23.94
		c11.67-17.8,18.62-49.55,9.23-69.67c-20.22-43.34-94.57-11.92-125.2-0.16c-39.13,15.02-79.6,34.48-118.7,47.83
		c-105.99,36.17-97.81-44.87-79.43-45.97c4.65,6.45-1.42,25.46,31.65,31.9c42.49,8.27,106.15-25.86,145.02-43.08
		c29.17-12.93,62.83-28.57,94.42-31.08c34.92-2.77,70.82,7.82,78.46,49.66c2.84,15.53,0.38,29.88-5.28,42.87
		c-6.84,15.72-34.54,49.56-47.03,55.72h0c0.29-0.04,0.6-0.1,0.9-0.19c-10.87,7.1-18.33,8.43-22.38,4.01
		c-4.06-4.43-5.66-14.59-4.82-30.5c0.17-1.48,0.29-3.18,0.36-5.12c0.07-1.94,0.19-3.67,0.34-5.2c0.16-1.53,0.28-3.09,0.36-4.67
		c0.09-1.58,0.15-2.97,0.2-4.18c0.05-1.21,0.05-2.32,0.02-3.34c-0.03-1.01-0.11-1.78-0.21-2.3c-0.11-0.52-0.35-0.8-0.72-0.84
		c-0.6,0.01-1.84,0.81-3.72,2.41c-1.88,1.6-4.18,4.21-6.9,7.85c-2.71,3.64-5.32,7.94-7.81,12.91c-2.49,4.97-4.6,11.33-6.32,19.08
		c-1.72,7.75-2.61,16.07-2.65,24.96c-4,0.97-7.24,1.38-9.73,1.25c-2.49-0.13-4.76-1.09-6.82-2.88c-2.06-1.79-3.73-4.58-5.02-8.39
		c-1.1-3.49-1.05-10.22,0.14-20.2s2.67-19.05,4.42-27.23l2.59-12.43c0.75-2.68,1.08-5.12,0.97-7.32c-0.1-2.2-0.39-3.82-0.85-4.86
		c-0.46-1.04-0.96-1.69-1.49-1.94c12.66,1.41,19.66,5.81,20.98,13.22c0.32,2.09,0.21,5.24-0.35,9.44
		c5.05-10.19,10.72-18.44,17.01-24.76C874.52,289,880.07,286.42,884.87,287.56z"/>
	<path class="st0" d="M576.4,491.77c-2.91-2.3-3.21-6.07-0.88-9.03c2.34-2.96,6.08-3.55,8.99-1.25c2.36,1.86,2.84,4.5,1.58,7.12
		l4.54,3.58c3.09-5.05,2.06-10.97-2.82-14.82c-5.38-4.24-12.53-3.54-16.77,1.84c-4.24,5.38-3.26,12.49,2.12,16.74
		c4.88,3.85,10.88,3.47,15.07-0.71l-4.54-3.58C581.43,493.48,578.76,493.63,576.4,491.77L576.4,491.77z M602.92,508.77l-8.61-4.3
		l-3.09,2.82l-5.38-2.69l18.86-16.12l4.81,2.41l-1.62,24.74l-5.35-2.68L602.92,508.77L602.92,508.77z M603.4,503.63l0.75-8.07
		l-6.01,5.44L603.4,503.63L603.4,503.63z M624.88,512.71l3.4,9.93l6.53,2.17l-4.9-15.07l11.35-6.73l-6.34-2.1l-11.84,6.95l3.25-9.8
		l-5.36-1.78l-7.15,21.57l5.36,1.78l1.45-4.38L624.88,512.71L624.88,512.71z M649.54,509.06l-0.77,4.07l9.88,1.88l-0.9,4.73
		l-9.88-1.88l-0.74,3.87l11.32,2.15l-0.92,4.83l-16.87-3.2l4.24-22.32l16.87,3.2l-0.92,4.83L649.54,509.06L649.54,509.06z
		 M674.27,505.84c-5.34-0.19-9.12,2.55-9.28,7.09c-0.13,3.61,1.9,5.79,6.34,6.91l3.71,0.97c1.92,0.44,2.36,1.25,2.34,2.02
		c-0.04,1.24-1.17,1.97-3.28,1.89c-2.67-0.1-4.37-1.36-4.66-3.38l-5.64-0.2c0.34,5.63,4.86,8.2,9.97,8.38
		c5.68,0.2,9.52-2.5,9.68-7.05c0.14-3.91-2.51-5.67-6.62-6.72l-3.15-0.85c-1.69-0.43-2.57-0.99-2.53-2.23
		c0.05-1.47,1.38-2.22,3.32-2.16c2.3,0.08,3.33,1.29,3.57,3l5.68,0.2C683.37,507.6,677.95,505.97,674.27,505.84L674.27,505.84z
		 M714.37,524.71l6.86-1.3l-5.91-3.91l0.09-0.22l2.91-7.8l-5.45,1.04l-1.63,4.29l-4.36-2.88c-2.52-1.63-3.8-2.44-4.05-3.79
		c-0.24-1.28,0.52-2.27,1.73-2.51c1.28-0.24,2.34,0.51,2.77,2.06l5.02-0.95c-1.17-4.2-4.39-6.44-8.82-5.6
		c-4.56,0.87-6.93,4.34-6.25,7.92c0.26,1.38,0.92,2.51,2.09,3.65c-1.97,1.6-3.18,3.87-2.66,6.59c0.8,4.2,4.71,6.38,9.84,5.41
		c2.53-0.48,4.58-1.51,6.12-3.07L714.37,524.71L714.37,524.71z M705.84,522.22c-2,0.38-3.78-0.57-4.07-2.09
		c-0.19-1.02,0.27-1.99,1.11-2.73l1.47,0.95l4.14,2.65C707.67,521.63,706.73,522.05,705.84,522.22L705.84,522.22z M748.18,487.92
		l-3.84,1.74l-2.33,14.37l-12.36-7.72l-3.81,1.72l9.37,20.7l5.15-2.33l-4.76-10.43l7.86,5.06l0.01,0.03l2.86-1.3l-0.01-0.03
		l1.38-9.17l4.7,10.38l5.14-2.33L748.18,487.92L748.18,487.92z M760.24,479.34c5.58-4.04,12.83-2.85,16.71,2.51
		c3.88,5.36,2.74,12.62-2.83,16.65c-5.55,4.02-12.8,2.83-16.68-2.53C753.55,490.62,754.69,483.36,760.24,479.34L760.24,479.34z
		 M771.03,494.26c2.98-2.15,3.35-6.14,1.26-9.03c-2.1-2.9-6-3.78-8.97-1.63c-2.98,2.16-3.35,6.14-1.26,9.04
		C764.16,495.52,768.06,496.41,771.03,494.26L771.03,494.26z M791.22,475.1l8.06,1.46l4.97-4.67l-9.52-1.6
		c1.03-2.85,0.51-5.8-1.66-8.11c-3.36-3.58-8.22-3.23-12.31,0.61l-7.26,6.82l15.56,16.56l4.11-3.87l-4.51-4.8L791.22,475.1
		L791.22,475.1z M785.18,473.81l-4.16-4.43l3.04-2.86c1.58-1.49,3.65-1.83,4.91-0.49c1.28,1.36,0.84,3.43-0.74,4.92L785.18,473.81
		L785.18,473.81z M797.19,451.47l3.25,2.56l6.23-7.9l3.78,2.98l-6.23,7.9l3.1,2.44l7.14-9.05l3.86,3.04l-10.64,13.48l-17.84-14.07
		l10.64-13.48l3.86,3.04L797.19,451.47z"/>
	<path class="st0" d="M576.67,322.68c-0.73,0.07-1.38,0.04-1.95-0.08l0,0c0.57,1.31,3.93,2.2,3.93,2.2s-2.44,0.37-4.79-1.16
		c-2.35-1.53-2.6-4.72-2.6-4.72h0c-0.41-1.77-0.31-4.03,0.13-6.48c1.07-5.94-8.5-5.78-13.87-3.06c-0.92,0.47-1.74,0.72-2.49,0.79
		l0,0c1.48,1.68,5.12,1.13,5.12,1.13s-2.52,0.95-4.66,0.29c-2.15-0.66-3.73-2.48-3.73-2.48v0c-1.87-1.47-3.55-4.27-6.05-7.49
		c-4.62-5.94-11.31,0.16-13.21,4.87c-0.39,0.97-0.89,1.73-1.47,2.32l0,0l0,0c-0.05,0.06-1.61,1.95-3.99,2.97
		c-2.42,1.03-4.83,0.15-4.83,0.15s3.97,0.38,5.39-1.52c-1.49,0.12-2.99-0.34-4.1-1.1c-2.56-1.73-9.82,0.08-6.52,10.98
		c1.39,4.6,4.9,6.92,8.17,8.02c1.25,0.42,2.63,0.01,3.51-0.96c8.74-9.54,27.91-7.72,33.52,0.61c-12.97-6.96-27.42-4.12-32.56,3.56
		c-0.6,0.9-0.88,1.97-0.82,3.05c0.06,1.03,0.15,2.16,0.22,2.96c0.38,4.41,1.16,7.65,1.74,9.59c0.31,1.04,1.58,1.51,2.43,0.84
		c5.74-4.48,27.29-9.02,32.09-3.32c0.73-0.61,1.11-0.44,0.95-1.38c-0.27-1.54-0.65-4.16-0.55-6.61c0.03-0.87,1.16-1.21,1.68-0.51
		c4.33,5.76,8.05,2.62,6.33-0.67c-1.9-3.63,5.61-3.39,9.66-5.53C587.4,327.79,582.12,322.18,576.67,322.68z"/>
</g>
</svg>
