<?xml version="1.0" encoding="utf-8"?>
<!-- Generator: Adobe Illustrator 23.0.1, SVG Export Plug-In . SVG Version: 6.00 Build 0)  -->
<svg version="1.1" id="Layer_1" xmlns="http://www.w3.org/2000/svg" xmlns:xlink="http://www.w3.org/1999/xlink" x="0px" y="0px"
	 viewBox="0 0 1366 768" style="enable-background:new 0 0 1366 768;" xml:space="preserve">
<style type="text/css">
	.st0{clip-path:url(#SVGID_2_);}
	.st1{fill-rule:evenodd;clip-rule:evenodd;fill:#E43352;}
	.st2{fill-rule:evenodd;clip-rule:evenodd;fill:#CF1F3D;}
</style>
<g>
	<defs>
		<rect id="SVGID_1_" x="0.25" y="-0.5" width="1368" height="679.3"/>
	</defs>
	<clipPath id="SVGID_2_">
		<use xlink:href="#SVGID_1_"  style="overflow:visible;"/>
	</clipPath>
	<g class="st0">
		<g>
			<path class="st1" d="M103.48-154.77l0.27,363.83c0.01,9.1,23.64,16.45,52.78,16.43c29.14-0.02,52.76-7.41,52.75-16.51L209-154.84
				L103.48-154.77z"/>
			<path class="st1" d="M314.53-154.92l0.27,363.83c0.01,9.1,23.64,16.45,52.78,16.43c29.14-0.02,52.76-7.41,52.75-16.51L420.06-155
				L314.53-154.92z"/>
			<path class="st1" d="M525.59-155.08l0.27,363.83c0.01,9.1,23.63,16.45,52.78,16.43c29.14-0.02,52.76-7.41,52.75-16.51
				l-0.27-363.83L525.59-155.08z"/>
			<path class="st1" d="M736.65-155.23l0.27,363.83c0.01,9.1,23.64,16.45,52.78,16.43c29.14-0.02,52.76-7.41,52.75-16.51
				l-0.27-363.83L736.65-155.23z"/>
			<path class="st1" d="M947.7-155.39l0.27,363.83c0.01,9.1,23.64,16.45,52.78,16.43c29.14-0.02,52.76-7.41,52.75-16.51
				l-0.27-363.83L947.7-155.39z"/>
			<path class="st1" d="M1158.77-155.54l0.27,363.83c0.01,9.1,23.63,16.45,52.77,16.43c29.14-0.02,52.76-7.41,52.75-16.51
				l-0.27-363.83L1158.77-155.54z"/>
		</g>
		<g>
			<path class="st2" d="M-2.06-154.69l0.27,363.83c0.01,9.1,23.64,16.45,52.78,16.43c29.14-0.02,52.76-7.41,52.75-16.51
				l-0.27-363.83L-2.06-154.69z"/>
			<path class="st2" d="M209-154.84l0.27,363.83c0.01,9.1,23.64,16.45,52.78,16.43c29.14-0.02,52.76-7.41,52.75-16.51l-0.27-363.83
				L209-154.84z"/>
			<path class="st2" d="M420.06-155l0.27,363.83c0.01,9.1,23.64,16.45,52.78,16.43c29.14-0.02,52.76-7.41,52.75-16.51l-0.27-363.83
				L420.06-155z"/>
			<path class="st2" d="M631.12-155.15l0.27,363.83c0.01,9.1,23.64,16.45,52.78,16.43c29.14-0.02,52.76-7.41,52.75-16.51
				l-0.27-363.83L631.12-155.15z"/>
			<path class="st2" d="M842.17-155.31l0.27,363.83c0.01,9.1,23.63,16.45,52.78,16.43c29.14-0.02,52.76-7.41,52.75-16.51
				l-0.27-363.83L842.17-155.31z"/>
			<path class="st2" d="M1053.23-155.46l0.27,363.83c0.01,9.1,23.64,16.45,52.78,16.43c29.14-0.02,52.77-7.41,52.76-16.51
				l-0.27-363.83L1053.23-155.46z"/>
			<path class="st2" d="M1264.29-155.62l0.27,363.83c0.01,9.1,23.63,16.45,52.77,16.43c29.14-0.02,52.76-7.41,52.75-16.51
				l-0.27-363.83L1264.29-155.62z"/>
		</g>
	</g>
</g>
</svg>
