<?xml version="1.0" encoding="iso-8859-1"?>
<!-- Generator: Adobe Illustrator 19.0.0, SVG Export Plug-In . SVG Version: 6.00 Build 0)  -->
<svg version="1.1" id="Capa_1" xmlns="http://www.w3.org/2000/svg" xmlns:xlink="http://www.w3.org/1999/xlink" x="0px" y="0px"
	 viewBox="0 0 512 512" style="enable-background:new 0 0 512 512;" xml:space="preserve">
<g>
	<g>
		<path d="M501.333,490.667h-10.667v-85.333c0-23.531-19.135-42.667-42.667-42.667v-85.333c0-23.531-19.135-42.667-42.667-42.667
			v-85.333c0-23.531-19.135-42.667-42.667-42.667h-82.762l28.72-32C315.958,66.417,320,55.531,320,44c0-24.26-18.073-44-40.292-44
			c-8.188,0-16.24,3.917-23.708,11.448C248.531,3.917,240.479,0,232.292,0C210.073,0,192,19.74,192,44
			c0,11.531,4.042,22.417,11.406,30.698l28.69,31.969h-82.763c-23.531,0-42.667,19.135-42.667,42.667v85.333
			C83.135,234.667,64,253.802,64,277.333v85.333c-23.531,0-42.667,19.135-42.667,42.667v85.333H10.667
			C4.771,490.667,0,495.438,0,501.333C0,507.229,4.771,512,10.667,512h490.667c5.896,0,10.667-4.771,10.667-10.667
			C512,495.438,507.229,490.667,501.333,490.667z M219.313,60.479c-3.854-4.333-5.979-10.188-5.979-16.479
			c0-12.5,8.5-22.667,18.958-22.667c2.865,0,8.458,3.406,14.813,13c3.958,5.979,13.833,5.979,17.792,0
			c6.354-9.594,11.948-13,14.813-13c10.458,0,18.958,10.167,18.958,22.667c0,6.292-2.125,12.146-5.948,16.448L256,101.365
			L219.313,60.479z M128,149.333c0-11.76,9.573-21.333,21.333-21.333h213.333c11.76,0,21.333,9.573,21.333,21.333v17.607
			c-3.819-1.553-7.232-3.458-10.875-5.534c-9.917-5.656-21.156-12.073-42.677-12.073c-21.49,0-32.719,6.417-42.615,12.073
			c-8.698,4.969-16.208,9.26-32.031,9.26c-15.833,0-23.333-4.292-32.031-9.26c-9.896-5.656-21.115-12.073-42.604-12.073
			c-21.49,0-32.708,6.417-42.604,12.073c-3.546,2.025-6.863,3.895-10.563,5.427V149.333z M128,189.345
			c8.836-2.405,15.306-6.078,21.156-9.418c8.688-4.969,16.188-9.26,32.01-9.26c15.823,0,23.323,4.292,32.021,9.26
			c9.896,5.656,21.115,12.073,42.615,12.073c21.49,0,32.719-6.417,42.615-12.073c8.698-4.969,16.198-9.26,32.031-9.26
			c15.865,0,23.396,4.292,32.115,9.271c5.911,3.371,12.461,7.072,21.438,9.474v45.255H128V189.345z M85.333,277.333
			c0-11.76,9.573-21.333,21.333-21.333h10.667h277.333h10.667c11.76,0,21.333,9.573,21.333,21.333v17.508
			c-5.113,2.107-11.629,3.826-21.438,3.826c-15.865,0-23.385-4.292-32.094-9.26c-9.917-5.656-21.156-12.073-42.688-12.073
			c-21.5,0-32.719,6.417-42.615,12.073c-8.698,4.969-16.198,9.26-32.031,9.26c-15.833,0-23.333-4.292-32.031-9.26
			c-9.896-5.656-21.115-12.073-42.604-12.073c-21.49,0-32.708,6.417-42.604,12.073c-8.698,4.969-16.198,9.26-32.021,9.26
			c-9.699,0-16.147-1.689-21.208-3.767V277.333z M85.333,317.361C91.16,318.926,98.021,320,106.542,320
			c21.49,0,32.708-6.417,42.604-12.073c8.698-4.969,16.198-9.26,32.021-9.26c15.823,0,23.323,4.292,32.021,9.26
			c9.896,5.656,21.115,12.073,42.615,12.073s32.719-6.417,42.615-12.073c8.698-4.969,16.208-9.26,32.031-9.26
			c15.875,0,23.396,4.292,32.115,9.271c9.906,5.656,21.146,12.063,42.667,12.063c8.613,0,15.557-1.09,21.438-2.684v45.35H85.333
			V317.361z M469.333,490.667H42.667v-63.195c9.035,1.461,14.854,4.763,21.302,8.456C73.865,441.583,85.073,448,106.542,448
			c21.49,0,32.708-6.417,42.604-12.073c8.698-4.969,16.198-9.26,32.021-9.26c15.823,0,23.323,4.292,32.021,9.26
			c9.896,5.656,21.115,12.073,42.615,12.073c21.49,0,32.719-6.417,42.615-12.073c8.698-4.969,16.198-9.26,32.031-9.26
			c15.875,0,23.396,4.292,32.115,9.271c9.906,5.656,21.146,12.063,42.667,12.063s32.76-6.417,42.677-12.073
			c6.483-3.699,12.328-7.009,21.427-8.466V490.667z M469.333,406.145c-14.664,1.74-23.936,6.656-32.01,11.262
			c-8.708,4.969-16.229,9.26-32.094,9.26s-23.385-4.292-32.094-9.26c-9.917-5.656-21.156-12.073-42.688-12.073
			c-21.49,0-32.719,6.417-42.615,12.073c-8.698,4.969-16.208,9.26-32.031,9.26c-15.833,0-23.333-4.292-32.031-9.26
			c-9.896-5.656-21.115-12.073-42.604-12.073c-21.49,0-32.708,6.417-42.604,12.073c-8.698,4.969-16.198,9.26-32.021,9.26
			c-15.802,0-23.292-4.292-31.969-9.26c-8.053-4.603-17.294-9.517-31.906-11.26v-0.813C42.667,393.573,52.24,384,64,384h384
			c11.76,0,21.333,9.573,21.333,21.333V406.145z"/>
	</g>
</g>
<g>
</g>
<g>
</g>
<g>
</g>
<g>
</g>
<g>
</g>
<g>
</g>
<g>
</g>
<g>
</g>
<g>
</g>
<g>
</g>
<g>
</g>
<g>
</g>
<g>
</g>
<g>
</g>
<g>
</g>
</svg>
